<svg width="32" height="24" viewBox="0 0 32 24" fill="none" xmlns="http://www.w3.org/2000/svg">
<path d="M22.4 20.8V24H0V20.8C0 20.8 0 14.4 11.2 14.4C22.4 14.4 22.4 20.8 22.4 20.8ZM16.8 5.60005C16.8 4.49247 16.4716 3.40977 15.8562 2.48886C15.2409 1.56795 14.3663 0.850182 13.343 0.426333C12.3198 0.00248303 11.1938 -0.108415 10.1075 0.107661C9.0212 0.323738 8.02338 0.857085 7.2402 1.64026C6.45703 2.42343 5.92368 3.42125 5.7076 4.50754C5.49153 5.59383 5.60242 6.7198 6.02627 7.74307C6.45013 8.76633 7.16789 9.64093 8.08881 10.2563C9.00972 10.8716 10.0924 11.2 11.2 11.2C12.6852 11.2 14.1096 10.61 15.1598 9.55983C16.21 8.50963 16.8 7.08525 16.8 5.60005ZM22.304 14.4C23.2876 15.1612 24.0924 16.1287 24.6619 17.2344C25.2313 18.3401 25.5515 19.5572 25.6 20.8V24H32V20.8C32 20.8 32 14.992 22.304 14.4ZM20.8 5.88743e-05C19.6988 -0.00506293 18.6221 0.324108 17.712 0.944057C18.6839 2.30203 19.2065 3.93011 19.2065 5.60005C19.2065 7.26998 18.6839 8.89806 17.712 10.256C18.6221 10.876 19.6988 11.2052 20.8 11.2C22.2852 11.2 23.7096 10.61 24.7598 9.55983C25.81 8.50963 26.4 7.08525 26.4 5.60005C26.4 4.11484 25.81 2.69046 24.7598 1.64026C23.7096 0.590056 22.2852 5.88743e-05 20.8 5.88743e-05Z" fill="#0D0D0D"/>
</svg>
