<svg width="133" height="40" viewBox="0 0 133 40" fill="none" xmlns="http://www.w3.org/2000/svg">
<path d="M63.8048 14.7776C64.6411 13.5293 65.0592 12.3641 65.0592 11.2822C65.0592 10.2003 64.7526 9.34027 64.1393 8.70221C63.5261 8.06415 62.7177 7.74512 61.7143 7.74512C60.7108 7.74512 59.9024 7.9948 59.2892 8.49415C58.6759 8.96576 58.3693 9.72865 58.3693 10.7828C58.3693 11.8093 59.094 13.668 60.5435 16.3589C61.993 19.0498 62.9129 20.7837 63.3031 21.5605C64.3623 23.6688 64.8919 25.7078 64.8919 27.6775C64.8919 30.1465 63.986 32.1578 62.1742 33.7113C60.3902 35.2371 58.2718 36 55.8188 36C53.3937 36 51.4843 35.251 50.0906 33.7529C48.6969 32.2271 48 30.4517 48 28.4265C48 24.6814 50.3275 21.5882 54.9826 19.1469C53.0871 15.4296 52.1394 12.8357 52.1394 11.3654C52.1394 9.31253 52.9617 7.57867 54.6063 6.16385C56.2787 4.72128 58.3136 4 60.7108 4C63.1358 4 64.9895 4.61032 66.2717 5.83095C67.554 7.05158 68.1951 8.60511 68.1951 10.4915C68.1951 11.7399 67.777 13.1686 66.9407 14.7776H63.8048ZM52.8502 31.0065C53.6028 31.811 54.5087 32.2133 55.5679 32.2133C56.655 32.2133 57.4913 31.9081 58.0766 31.2978C58.6899 30.6597 58.9965 29.7304 58.9965 28.5098C58.9965 27.4001 58.5644 26.0407 57.7003 24.4317C57.5888 24.2098 57.3798 23.8075 57.0731 23.225C56.7665 22.6147 56.5435 22.1847 56.4042 21.935C53.2822 23.544 51.7212 25.5691 51.7212 28.0104C51.7212 29.2588 52.0976 30.2575 52.8502 31.0065Z" fill="#050F23"/>
<path d="M75.9002 26.4291C77.6284 26.0685 78.9106 25.3749 79.7469 24.3485C80.611 23.3221 81.043 22.3372 81.043 21.394C81.043 20.4231 80.7782 19.7711 80.2486 19.4382C79.7469 19.0776 79.1894 18.8973 78.5761 18.8973C77.266 18.8973 76.1092 19.6324 75.1058 21.1027C74.1302 22.5453 73.6424 24.2792 73.6424 26.3043C73.6424 28.3017 74.1162 29.7997 75.064 30.7984C76.0396 31.7694 77.2382 32.2549 78.6598 32.2549C80.7504 32.2549 82.7573 31.5336 84.6807 30.091C86.604 28.6485 88.165 26.762 89.3636 24.4317C89.9768 25.0143 90.5343 25.7356 91.036 26.5956C90.1162 28.6762 88.4855 30.7152 86.1441 32.7126C84.9733 33.6836 83.5796 34.4742 81.9629 35.0845C80.374 35.6948 78.7294 36 77.0291 36C74.2417 36 72.0396 35.1539 70.4229 33.4616C68.6946 31.6307 67.8305 29.2865 67.8305 26.4291C67.8305 23.5717 68.9037 21.075 71.05 18.9389C73.2242 16.8028 75.8166 15.7347 78.827 15.7347C80.9733 15.7347 82.7155 16.2063 84.0535 17.1495C85.3915 18.065 86.0744 19.3134 86.1023 20.8947C86.1023 23.0308 85.2381 24.7646 83.5099 26.0962C81.8096 27.4278 79.4681 28.3572 76.4856 28.8843L75.9002 26.4291Z" fill="#050F23"/>
<path d="M95.3769 26.4291C97.1052 26.0685 98.3874 25.3749 99.2236 24.3485C100.088 23.3221 100.52 22.3372 100.52 21.394C100.52 20.4231 100.255 19.7711 99.7254 19.4382C99.2236 19.0776 98.6661 18.8973 98.0529 18.8973C96.7428 18.8973 95.586 19.6324 94.5825 21.1027C93.6069 22.5453 93.1191 24.2792 93.1191 26.3043C93.1191 28.3017 93.593 29.7997 94.5407 30.7984C95.5163 31.7694 96.7149 32.2549 98.1365 32.2549C100.227 32.2549 102.234 31.5336 104.157 30.091C106.081 28.6485 107.642 26.762 108.84 24.4317C109.454 25.0143 110.011 25.7356 110.513 26.5956C109.593 28.6762 107.962 30.7152 105.621 32.7126C104.45 33.6836 103.056 34.4742 101.44 35.0845C99.8508 35.6948 98.2062 36 96.5059 36C93.7184 36 91.5163 35.1539 89.8996 33.4616C88.1714 31.6307 87.3073 29.2865 87.3073 26.4291C87.3073 23.5717 88.3804 21.075 90.5268 18.9389C92.701 16.8028 95.2933 15.7347 98.3038 15.7347C100.45 15.7347 102.192 16.2063 103.53 17.1495C104.868 18.065 105.551 19.3134 105.579 20.8947C105.579 23.0308 104.715 24.7646 102.987 26.0962C101.286 27.4278 98.9449 28.3572 95.9623 28.8843L95.3769 26.4291Z" fill="#050F23"/>
<path d="M123.049 5.74772C123.244 5.27612 123.676 4.88773 124.345 4.58257C125.042 4.24967 125.864 4.08322 126.812 4.08322C127.787 4.08322 128.512 4.22193 128.986 4.49935C128.707 6.6632 128.261 10.0616 127.648 14.6944C126.366 24.3762 125.725 29.7165 125.725 30.7152C125.725 31.6862 126.143 32.1717 126.979 32.1717C127.704 32.1717 128.456 31.7278 129.237 30.8401C130.017 29.9246 130.728 28.4404 131.369 26.3875C132.15 27.1365 132.693 27.9549 133 28.8427C131.997 32.1439 130.422 34.28 128.275 35.251C127.3 35.7226 126.38 35.9584 125.516 35.9584C123.035 35.9584 121.376 35.0707 120.54 33.2952C119.091 35.0984 117.237 36 114.979 36C112.721 36 110.812 35.2371 109.251 33.7113C107.718 32.1855 106.951 30.1743 106.951 27.6775C106.951 24.0433 108.024 21.1443 110.171 18.9805C112.317 16.8166 115.035 15.7347 118.324 15.7347C118.408 15.7347 118.491 15.7347 118.575 15.7347C119.718 15.7347 120.791 15.9012 121.794 16.2341L123.049 5.74772ZM118.951 18.9805C117.167 18.9805 115.746 19.6602 114.686 21.0195C113.655 22.3511 113.042 24.3485 112.847 27.0117C112.819 27.2614 112.805 27.4972 112.805 27.7191C112.805 29.0785 113.125 30.1604 113.767 30.9649C114.436 31.7694 115.286 32.1717 116.317 32.1717C118.073 32.1717 119.397 30.9371 120.289 28.4681L121.376 19.5215C120.456 19.1608 119.648 18.9805 118.951 18.9805Z" fill="#050F23"/>
<path d="M37.0371 0C38.6735 3.94271e-05 40 1.32655 40 2.96289V37.0371C40 38.6735 38.6735 40 37.0371 40H2.96289C1.32655 40 3.91054e-05 38.6735 0 37.0371V2.96289C3.94275e-05 1.32655 1.32655 3.9105e-05 2.96289 0H37.0371ZM25.5703 8.94727C25.3934 8.88132 25.2005 8.87124 25.0176 8.91797C24.8347 8.9647 24.6705 9.06628 24.5469 9.20898L24.5459 9.21191L24.542 9.21484L24.5303 9.22754L24.4922 9.27344L24.3525 9.44238C24.234 9.58805 24.0652 9.80055 23.8604 10.0732C23.3031 10.8169 22.7808 11.5862 22.2959 12.3789C21.3855 13.8557 20.6169 15.4157 20 17.0371C19.3831 15.4156 18.6136 13.8557 17.7031 12.3789C17.2182 11.5867 16.6968 10.8174 16.1396 10.0742C15.9351 9.80275 15.7236 9.53621 15.5068 9.27441L15.4688 9.22852L15.458 9.2168L15.4541 9.21289L15.4531 9.20898C15.3296 9.06631 15.1653 8.96474 14.9824 8.91797C14.7996 8.87125 14.6065 8.88139 14.4297 8.94727C14.2528 9.01322 14.0999 9.13203 13.9922 9.28711C13.8846 9.44216 13.8271 9.6267 13.8271 9.81543V17.9092C13.4465 17.1119 12.9747 16.361 12.4219 15.6719C11.8392 14.9596 11.2924 14.5177 10.8652 14.2461C10.6956 14.1363 10.5173 14.0407 10.332 13.96C10.2558 13.9268 10.1778 13.8973 10.0986 13.8721L10.0762 13.8643L10.0664 13.8623H10.0625L10.0605 13.8604H10.0576C9.92046 13.8231 9.77621 13.8184 9.63672 13.8457C9.49719 13.873 9.36594 13.9323 9.25293 14.0186C9.13987 14.1049 9.04848 14.2163 8.98535 14.3438C8.92227 14.4712 8.8888 14.6117 8.88867 14.7539V27.0986C8.88867 28.1627 9.31106 29.1841 10.0635 29.9365C10.8159 30.689 11.8372 31.1113 12.9014 31.1113H27.0986C28.1626 31.1113 29.1831 30.6888 29.9355 29.9365C30.688 29.1841 31.1113 28.1628 31.1113 27.0986V14.7539C31.1114 14.6115 31.0787 14.4704 31.0156 14.3428C30.9526 14.2151 30.8602 14.104 30.7471 14.0176C30.6341 13.9312 30.5028 13.8721 30.3633 13.8447C30.2236 13.8174 30.0788 13.822 29.9414 13.8594H29.9395L29.9365 13.8604L29.9336 13.8623L29.9229 13.8643L29.9014 13.8721C29.8212 13.8956 29.7429 13.9252 29.667 13.96C29.4826 14.0408 29.3046 14.1364 29.1357 14.2461C28.7074 14.5177 28.1608 14.9597 27.5781 15.6719C27.0253 16.361 26.5535 17.1119 26.1729 17.9092V9.81543C26.1729 9.62675 26.1154 9.44213 26.0078 9.28711C25.9001 9.13203 25.7472 9.01322 25.5703 8.94727Z" fill="#050F23"/>
</svg>
