<svg width="1000" height="1000" viewBox="0 0 1000 1000" fill="none" xmlns="http://www.w3.org/2000/svg">
<path d="M496.998 1000H0V503.002L496.998 1000ZM1000 1000H503.006L676.187 826.819C678.027 860.676 691.876 894.001 717.738 919.864C773.426 975.552 863.713 975.552 919.401 919.864C975.089 864.176 975.089 773.889 919.401 718.201C893.539 692.338 860.213 678.49 826.356 676.649L1000 503.006V1000ZM0 497.002V0H497.002L0 497.002ZM1000 496.997L826.485 323.483C824.617 357.212 810.802 390.403 785.036 416.169C729.476 471.729 639.395 471.729 583.835 416.169C528.275 360.609 528.275 270.528 583.835 214.968C609.601 189.202 642.792 175.386 676.521 173.519L503.002 0H1000V496.997Z" fill="#FD00B8"/>
</svg>
