<svg width="72" height="72" viewBox="0 0 72 72" fill="none" xmlns="http://www.w3.org/2000/svg">
<path d="M64 0C68.4183 0 72 3.58172 72 8V64C72 68.4183 68.4183 72 64 72H8C3.58172 72 3.22139e-08 68.4183 0 64V8C0 3.58172 3.58172 3.22128e-08 8 0H64ZM46.0264 16.1055C45.7079 15.9868 45.3605 15.9686 45.0312 16.0527C44.7022 16.1369 44.4069 16.3195 44.1846 16.5762L44.1816 16.5811L44.1758 16.5869L44.1553 16.6094L44.0859 16.6914L43.835 16.9961C43.6216 17.2583 43.3171 17.6408 42.9482 18.1318C41.9452 19.4705 41.0057 20.8562 40.1328 22.2832C38.4941 24.9413 37.1104 27.7484 36 30.667C34.8895 27.7483 33.505 24.9414 31.8662 22.2832C30.9933 20.8569 30.0538 19.4718 29.0508 18.1338C28.6827 17.6453 28.3032 17.1655 27.9131 16.6943L27.8438 16.6113L27.8242 16.5898L27.8174 16.583L27.8154 16.5762C27.593 16.3193 27.297 16.1369 26.9678 16.0527C26.6385 15.9686 26.2911 15.9868 25.9727 16.1055C25.6544 16.2242 25.3803 16.4378 25.1865 16.7168C24.9928 16.9959 24.8887 17.3273 24.8887 17.667V32.2363C24.2035 30.8013 23.3544 29.4504 22.3594 28.21C21.3105 26.9277 20.3265 26.1315 19.5576 25.6426C19.2522 25.4448 18.9312 25.2723 18.5977 25.127C18.4605 25.0674 18.3202 25.0152 18.1777 24.9697L18.1377 24.9561L18.1201 24.9521H18.1133L18.1084 24.9492H18.1045C17.8575 24.882 17.5979 24.8728 17.3467 24.9219C17.0954 24.971 16.8588 25.078 16.6553 25.2334C16.4518 25.3888 16.2865 25.5889 16.1729 25.8184C16.0593 26.0478 16.0002 26.3007 16 26.5566V48.7783C16 50.6937 16.7609 52.5304 18.1152 53.8848C19.4696 55.2391 21.3063 55.9999 23.2217 56H48.7773C50.6928 56 52.5303 55.2392 53.8848 53.8848C55.239 52.5304 56 50.6936 56 48.7783V26.5566C56.0001 26.3004 55.9406 26.0471 55.8271 25.8174C55.7137 25.5877 55.5492 25.3871 55.3457 25.2314C55.1421 25.0758 54.9048 24.9692 54.6533 24.9199C54.402 24.8707 54.1427 24.88 53.8955 24.9473H53.8906L53.8867 24.9492L53.8799 24.9521L53.8623 24.9561L53.8223 24.9697C53.6779 25.012 53.5362 25.0642 53.3994 25.127C53.0675 25.2725 52.7482 25.4451 52.4443 25.6426C51.6732 26.1315 50.6885 26.9277 49.6396 28.21C48.6447 29.4503 47.7965 30.8014 47.1113 32.2363V17.667C47.1113 17.3274 47.0071 16.9958 46.8135 16.7168C46.6196 16.4376 46.3448 16.2242 46.0264 16.1055Z" fill="#FEFEFE"/>
</svg>
