<svg width="116" height="32" viewBox="0 0 116 32" fill="none" xmlns="http://www.w3.org/2000/svg">
<path d="M45.112 27.224C43.4693 27.224 41.9973 26.9573 40.696 26.424C39.3947 25.8907 38.3493 25.1013 37.56 24.056C36.792 23.0107 36.3867 21.752 36.344 20.28H42.168C42.2533 21.112 42.5413 21.752 43.032 22.2C43.5227 22.6267 44.1627 22.84 44.952 22.84C45.7627 22.84 46.4027 22.6587 46.872 22.296C47.3413 21.912 47.576 21.3893 47.576 20.728C47.576 20.1733 47.384 19.7147 47 19.352C46.6373 18.9893 46.1787 18.6907 45.624 18.456C45.0907 18.2213 44.3227 17.9547 43.32 17.656C41.8693 17.208 40.6853 16.76 39.768 16.312C38.8507 15.864 38.0613 15.2027 37.4 14.328C36.7387 13.4533 36.408 12.312 36.408 10.904C36.408 8.81333 37.1653 7.18133 38.68 6.008C40.1947 4.81333 42.168 4.216 44.6 4.216C47.0747 4.216 49.0693 4.81333 50.584 6.008C52.0987 7.18133 52.9093 8.824 53.016 10.936H47.096C47.0533 10.2107 46.7867 9.64533 46.296 9.24C45.8053 8.81333 45.176 8.6 44.408 8.6C43.7467 8.6 43.2133 8.78133 42.808 9.144C42.4027 9.48533 42.2 9.98667 42.2 10.648C42.2 11.3733 42.5413 11.9387 43.224 12.344C43.9067 12.7493 44.9733 13.1867 46.424 13.656C47.8747 14.1467 49.048 14.616 49.944 15.064C50.8613 15.512 51.6507 16.1627 52.312 17.016C52.9733 17.8693 53.304 18.968 53.304 20.312C53.304 21.592 52.9733 22.7547 52.312 23.8C51.672 24.8453 50.7333 25.6773 49.496 26.296C48.2587 26.9147 46.7973 27.224 45.112 27.224ZM73.5035 17.784C73.5035 18.296 73.4715 18.8293 73.4075 19.384H61.0235C61.1088 20.4933 61.4608 21.3467 62.0795 21.944C62.7195 22.52 63.4982 22.808 64.4155 22.808C65.7808 22.808 66.7302 22.232 67.2635 21.08H73.0875C72.7888 22.2533 72.2448 23.3093 71.4555 24.248C70.6875 25.1867 69.7168 25.9227 68.5435 26.456C67.3702 26.9893 66.0582 27.256 64.6075 27.256C62.8582 27.256 61.3008 26.8827 59.9355 26.136C58.5702 25.3893 57.5035 24.3227 56.7355 22.936C55.9675 21.5493 55.5835 19.928 55.5835 18.072C55.5835 16.216 55.9568 14.5947 56.7035 13.208C57.4715 11.8213 58.5382 10.7547 59.9035 10.008C61.2688 9.26133 62.8368 8.888 64.6075 8.888C66.3355 8.888 67.8715 9.25067 69.2155 9.976C70.5595 10.7013 71.6048 11.736 72.3515 13.08C73.1195 14.424 73.5035 15.992 73.5035 17.784ZM67.9035 16.344C67.9035 15.4053 67.5835 14.6587 66.9435 14.104C66.3035 13.5493 65.5035 13.272 64.5435 13.272C63.6262 13.272 62.8475 13.5387 62.2075 14.072C61.5888 14.6053 61.2048 15.3627 61.0555 16.344H67.9035ZM93.2222 17.784C93.2222 18.296 93.1903 18.8293 93.1263 19.384H80.7423C80.8276 20.4933 81.1796 21.3467 81.7983 21.944C82.4383 22.52 83.2169 22.808 84.1343 22.808C85.4996 22.808 86.4489 22.232 86.9823 21.08H92.8063C92.5076 22.2533 91.9636 23.3093 91.1743 24.248C90.4063 25.1867 89.4356 25.9227 88.2623 26.456C87.0889 26.9893 85.7769 27.256 84.3263 27.256C82.5769 27.256 81.0196 26.8827 79.6543 26.136C78.2889 25.3893 77.2223 24.3227 76.4543 22.936C75.6863 21.5493 75.3023 19.928 75.3023 18.072C75.3023 16.216 75.6756 14.5947 76.4223 13.208C77.1903 11.8213 78.2569 10.7547 79.6223 10.008C80.9876 9.26133 82.5556 8.888 84.3263 8.888C86.0543 8.888 87.5903 9.25067 88.9343 9.976C90.2783 10.7013 91.3236 11.736 92.0703 13.08C92.8383 14.424 93.2222 15.992 93.2222 17.784ZM87.6223 16.344C87.6223 15.4053 87.3023 14.6587 86.6623 14.104C86.0223 13.5493 85.2223 13.272 84.2623 13.272C83.3449 13.272 82.5663 13.5387 81.9263 14.072C81.3076 14.6053 80.9236 15.3627 80.7743 16.344H87.6223ZM95.021 18.04C95.021 16.2053 95.3623 14.5947 96.045 13.208C96.749 11.8213 97.6983 10.7547 98.893 10.008C100.088 9.26133 101.421 8.888 102.893 8.888C104.066 8.888 105.133 9.13333 106.093 9.624C107.074 10.1147 107.842 10.776 108.397 11.608V3.32H113.869V27H108.397V24.44C107.885 25.2933 107.149 25.976 106.189 26.488C105.25 27 104.152 27.256 102.893 27.256C101.421 27.256 100.088 26.8827 98.893 26.136C97.6983 25.368 96.749 24.2907 96.045 22.904C95.3623 21.496 95.021 19.8747 95.021 18.04ZM108.397 18.072C108.397 16.7067 108.013 15.6293 107.245 14.84C106.498 14.0507 105.581 13.656 104.493 13.656C103.405 13.656 102.477 14.0507 101.709 14.84C100.962 15.608 100.589 16.6747 100.589 18.04C100.589 19.4053 100.962 20.4933 101.709 21.304C102.477 22.0933 103.405 22.488 104.493 22.488C105.581 22.488 106.498 22.0933 107.245 21.304C108.013 20.5147 108.397 19.4373 108.397 18.072Z" fill="#1F1F1F"/>
<path d="M25.2227 2.5C26.2042 2.50023 26.9998 3.29585 27 4.27734V27.7227C26.9998 28.7042 26.2042 29.4998 25.2227 29.5H1.77734C0.795849 29.4998 0.000234461 28.7042 0 27.7227V4.27734C0.000234787 3.29585 0.795849 2.50023 1.77734 2.5H25.2227ZM17.2598 8.54004C17.1404 8.49553 17.0102 8.48798 16.8867 8.51953C16.7634 8.55107 16.6527 8.61964 16.5693 8.71582L16.5684 8.71777L16.5654 8.7207L16.5586 8.72852L16.5322 8.75977L16.4385 8.87402C16.3585 8.97235 16.2437 9.11576 16.1055 9.2998C15.7294 9.80172 15.377 10.3214 15.0498 10.8564C14.4354 11.8532 13.9164 12.9057 13.5 14C13.0836 12.9057 12.5646 11.8531 11.9502 10.8564C11.6228 10.3216 11.2707 9.80157 10.8945 9.2998C10.7565 9.1166 10.6141 8.93645 10.4678 8.75977L10.4414 8.72949L10.4346 8.7207L10.4316 8.71875L10.4307 8.71582C10.3473 8.61964 10.2366 8.55108 10.1133 8.51953C9.98983 8.48799 9.85963 8.49554 9.74023 8.54004C9.62093 8.58452 9.51799 8.66402 9.44531 8.76855C9.37267 8.87317 9.33304 8.99764 9.33301 9.125V14.5889C9.07605 14.0507 8.75792 13.5433 8.38477 13.0781C7.99154 12.5975 7.62225 12.2995 7.33398 12.1162C7.21961 12.0421 7.09951 11.9773 6.97461 11.9229C6.92314 11.9005 6.86987 11.8803 6.81641 11.8633L6.80176 11.8584L6.79492 11.8564H6.78906C6.6964 11.8312 6.59913 11.8273 6.50488 11.8457C6.41087 11.8641 6.32229 11.9039 6.24609 11.9619C6.16977 12.0202 6.10707 12.0956 6.06445 12.1816C6.02186 12.2677 6.00009 12.363 6 12.459V20.792C6.00003 21.5102 6.28514 22.1992 6.79297 22.707C7.30081 23.2149 7.98982 23.4999 8.70801 23.5H18.292C19.0102 23.4999 19.6992 23.2149 20.207 22.707C20.7148 22.1992 21 21.5102 21 20.792V12.459C21 12.363 20.978 12.2677 20.9355 12.1816C20.893 12.0956 20.8311 12.0203 20.7549 11.9619C20.6785 11.9035 20.5894 11.8632 20.4951 11.8447C20.4008 11.8263 20.3036 11.8302 20.2109 11.8555H20.209L20.207 11.8564H20.2051L20.1982 11.8584L20.1836 11.8633C20.1296 11.8791 20.0766 11.8994 20.0254 11.9229C19.901 11.9774 19.7809 12.0422 19.667 12.1162C19.3779 12.2995 19.0084 12.5975 18.6152 13.0781C18.2421 13.5433 17.924 14.0507 17.667 14.5889V9.125C17.667 8.99764 17.6273 8.87317 17.5547 8.76855C17.482 8.664 17.3791 8.58452 17.2598 8.54004Z" fill="#1F1F1F"/>
</svg>
