<svg width="262" height="205" viewBox="0 0 262 205" fill="none" xmlns="http://www.w3.org/2000/svg">
<path d="M180.571 106.044C179.026 126.587 194.426 144.492 214.968 146.037C235.51 147.583 253.416 132.183 254.961 111.64C256.506 91.0982 241.106 73.1927 220.564 71.6475C200.022 70.1022 182.116 85.5022 180.571 106.044Z" fill="#5533EF"/>
<path d="M185.975 199.964L0 185.975L13.9898 0L79.2566 4.90965C72.8709 11.0472 68.6337 19.4669 67.917 28.9941C66.372 49.5361 81.7718 67.4415 102.314 68.9868C122.856 70.5319 140.761 55.1319 142.306 34.59C143.023 25.0629 140.093 16.104 134.698 9.08016L199.964 13.9898L185.975 199.964Z" fill="#5533EF"/>
</svg>
