<svg width="393" height="284" viewBox="0 0 393 284" fill="none" xmlns="http://www.w3.org/2000/svg">
<path d="M112.702 4.44193C110.893 2.43032 108.512 1.01245 105.876 0.375929C103.239 -0.260591 100.47 -0.0857591 97.9353 0.877294C95.4006 1.84035 93.2196 3.54623 91.6809 5.76922C90.1421 7.9922 89.3183 10.6275 89.3182 13.3265V179.716C81.4972 162.268 71.8131 145.707 60.4327 130.318C52.3844 119.411 43.199 109.38 33.0299 100.395C29.3662 97.213 25.5189 94.2464 21.5078 91.5103L20.7218 90.9951L20.4539 90.8351L20.3645 90.7818L20.3288 90.764C18.2948 89.5582 15.9586 88.9085 13.5909 88.8808C11.2232 88.8532 8.89022 89.4486 6.82832 90.6066C4.76643 91.7647 3.0489 93.4443 1.84977 95.4753C0.650627 97.5063 0.0124853 99.8165 0 102.172V324.285C0 341.958 0 567.93 0 567.93C0 567.93 49.2335 567.93 67 567.93L326.011 568C344 567.93 393 567.93 393 567.93C393 567.93 393 341.958 393 324.285V102.172C393 99.8133 392.37 97.497 391.176 95.4596C389.982 93.4222 388.265 91.7365 386.202 90.5747C384.138 89.413 381.802 88.8167 379.431 88.8468C377.06 88.877 374.74 89.5324 372.707 90.7463L372.671 90.764L372.635 90.7818L372.546 90.8351L372.278 91.0128C371.105 91.7386 369.961 92.5091 368.848 93.3228C366.651 94.922 363.614 97.232 359.97 100.395C352.682 106.738 342.946 116.44 332.567 130.3C321.186 145.695 311.502 162.262 303.682 179.716V13.3265C303.682 10.6275 302.858 7.9922 301.319 5.76922C299.78 3.54623 297.599 1.84035 295.065 0.877294C292.53 -0.0857591 289.761 -0.260591 287.124 0.375929C284.488 1.01245 282.107 2.43032 280.298 4.44193L280.263 4.47747L280.209 4.54855L279.995 4.77955L279.28 5.61469L276.654 8.70651C274.421 11.3719 271.259 15.3166 267.436 20.3808C256.983 34.2983 247.327 48.7913 238.515 63.7906C220.949 93.5252 206.852 125.158 196.5 158.073C186.148 125.158 172.051 93.5252 154.485 63.7906C145.673 48.7913 136.017 34.2983 125.563 20.3808C121.542 15.0515 117.354 9.84856 113.005 4.77955L112.791 4.54855L112.737 4.47747L112.702 4.44193Z" fill="url(#paint0_linear_144_222)"/>
<defs>
<linearGradient id="paint0_linear_144_222" x1="196.5" y1="0" x2="196.5" y2="658.25" gradientUnits="userSpaceOnUse">
<stop stop-color="#5835EF"/>
<stop offset="1" stop-color="#A868F8"/>
</linearGradient>
</defs>
</svg>
