<svg width="32" height="32" viewBox="0 0 32 32" fill="none" xmlns="http://www.w3.org/2000/svg">
<circle cx="16" cy="16" r="16" fill="#5533EF"/>
<path d="M7.70361 22.2222C7.70361 21.1221 8.14065 20.067 8.91858 19.2891C9.69651 18.5111 10.7516 18.0741 11.8518 18.0741H20.1481C21.2482 18.0741 22.3033 18.5111 23.0812 19.2891C23.8592 20.067 24.2962 21.1221 24.2962 22.2222C24.2962 22.7723 24.0777 23.2999 23.6887 23.6888C23.2998 24.0778 22.7722 24.2963 22.2221 24.2963H9.77769C9.22761 24.2963 8.70006 24.0778 8.3111 23.6888C7.92213 23.2999 7.70361 22.7723 7.70361 22.2222Z" fill="#FEFEFE" stroke="#FEFEFE" stroke-linejoin="round"/>
<path d="M16 13.926C17.7182 13.926 19.1111 12.5331 19.1111 10.8148C19.1111 9.09663 17.7182 7.70374 16 7.70374C14.2818 7.70374 12.8889 9.09663 12.8889 10.8148C12.8889 12.5331 14.2818 13.926 16 13.926Z" fill="#FEFEFE" stroke="#FEFEFE"/>
</svg>
