<svg width="24" height="24" viewBox="0 0 24 24" fill="none" xmlns="http://www.w3.org/2000/svg">
<mask id="mask0_363_21" style="mask-type:alpha" maskUnits="userSpaceOnUse" x="0" y="0" width="24" height="24">
<circle cx="12" cy="12" r="12" fill="#E5E7E9"/>
</mask>
<g mask="url(#mask0_363_21)">
<circle cx="12" cy="12" r="12" fill="#E5E7E9"/>
<path d="M12 13C14.7614 13 17 10.7614 17 8C17 5.23858 14.7614 3 12 3C9.23858 3 7 5.23858 7 8C7 10.7614 9.23858 13 12 13Z" fill="#B0B4B7"/>
<path d="M12 27C17.5228 27 22 24.0899 22 20.5C22 16.9101 17.5228 14 12 14C6.47715 14 2 16.9101 2 20.5C2 24.0899 6.47715 27 12 27Z" fill="#B0B4B7"/>
</g>
</svg>
